<svg width="19" height="13" viewBox="0 0 19 13" fill="none" xmlns="http://www.w3.org/2000/svg">
<path d="M4.49376 11.375C4.0918 11.375 3.74466 11.2712 3.45232 11.0635C3.17217 10.8469 3.03209 10.5896 3.03209 10.2917V2.70833C3.03209 2.41042 3.17217 2.15764 3.45232 1.95C3.74466 1.73333 4.0918 1.625 4.49376 1.625H14.7255C15.1275 1.625 15.4685 1.73333 15.7487 1.95C16.041 2.15764 16.1872 2.41042 16.1872 2.70833V10.2917C16.1872 10.5896 16.041 10.8469 15.7487 11.0635C15.4685 11.2712 15.1275 11.375 14.7255 11.375H4.49376ZM4.49376 10.2917H14.7255V8.66667H12.533C12.1676 9.00972 11.7291 9.27604 11.2175 9.46563C10.7181 9.65521 10.1821 9.75 9.60963 9.75C9.03714 9.75 8.4951 9.65521 7.98352 9.46563C7.48411 9.27604 7.0517 9.00972 6.68628 8.66667H4.49376V10.2917ZM9.60963 8.66667C10.0725 8.66667 10.4927 8.56736 10.8703 8.36875C11.2479 8.17014 11.5098 7.90833 11.656 7.58333H14.7255V2.70833H4.49376V7.58333H7.56328C7.70945 7.90833 7.97134 8.17014 8.34893 8.36875C8.72653 8.56736 9.14677 8.66667 9.60963 8.66667ZM4.49376 10.2917H6.68628C7.0517 10.2917 7.48411 10.2917 7.98352 10.2917C8.4951 10.2917 9.03714 10.2917 9.60963 10.2917C10.1821 10.2917 10.7181 10.2917 11.2175 10.2917C11.7291 10.2917 12.1676 10.2917 12.533 10.2917H14.7255H4.49376Z" fill="#1D1B20"/>
</svg>
