<svg width="16" height="13" viewBox="0 0 16 13" fill="none" xmlns="http://www.w3.org/2000/svg">
<path d="M8.00803 6.5C7.35484 6.5 6.79568 6.28785 6.33053 5.86355C5.86538 5.43924 5.63281 4.92917 5.63281 4.33334C5.63281 3.7375 5.86538 3.22744 6.33053 2.80313C6.79568 2.37882 7.35484 2.16667 8.00803 2.16667C8.66122 2.16667 9.22038 2.37882 9.68553 2.80313C10.1507 3.22744 10.3833 3.7375 10.3833 4.33334C10.3833 4.92917 10.1507 5.43924 9.68553 5.86355C9.22038 6.28785 8.66122 6.5 8.00803 6.5ZM3.25758 10.8333V9.31667C3.25758 9.00973 3.34418 8.72761 3.51737 8.47032C3.69057 8.21303 3.92067 8.01667 4.20767 7.88125C4.82127 7.60139 5.44477 7.3915 6.07816 7.25157C6.71155 7.11164 7.35484 7.04167 8.00803 7.04167C8.66122 7.04167 9.3045 7.11164 9.9379 7.25157C10.5713 7.3915 11.1948 7.60139 11.8084 7.88125C12.0954 8.01667 12.3255 8.21303 12.4987 8.47032C12.6719 8.72761 12.7585 9.00973 12.7585 9.31667V10.8333H3.25758ZM4.44519 9.75H11.5709V9.31667C11.5709 9.21737 11.5436 9.12709 11.4892 9.04584C11.4348 8.96459 11.363 8.90139 11.274 8.85625C10.7395 8.6125 10.2002 8.42969 9.65584 8.30782C9.11152 8.18594 8.56225 8.125 8.00803 8.125C7.45381 8.125 6.90454 8.18594 6.36022 8.30782C5.8159 8.42969 5.27652 8.6125 4.7421 8.85625C4.65303 8.90139 4.58128 8.96459 4.52684 9.04584C4.47241 9.12709 4.44519 9.21737 4.44519 9.31667V9.75ZM8.00803 5.41667C8.33462 5.41667 8.61421 5.3106 8.84678 5.09844C9.07935 4.88629 9.19564 4.63125 9.19564 4.33334C9.19564 4.03542 9.07935 3.78039 8.84678 3.56823C8.61421 3.35608 8.33462 3.25001 8.00803 3.25001C7.68144 3.25001 7.40185 3.35608 7.16928 3.56823C6.9367 3.78039 6.82042 4.03542 6.82042 4.33334C6.82042 4.63125 6.9367 4.88629 7.16928 5.09844C7.40185 5.3106 7.68144 5.41667 8.00803 5.41667Z" fill="#1D1B20"/>
</svg>
